<svg xmlns="http://www.w3.org/2000/svg" width="200" height="200" viewBox="0 0 200 200">
  <g id="_1" data-name="1" transform="translate(2430 -1783)">
    <circle id="Ellipse_28" data-name="Ellipse 28" cx="100" cy="100" r="100" transform="translate(-2430 1783)" fill="#16161d"/>
    <path id="Icon_awesome-connectdevelop" data-name="Icon awesome-connectdevelop" d="M104.546,44.542,94.88,27.8a3.105,3.105,0,0,0,.362-1.4A2.949,2.949,0,0,0,92.4,23.5L81.7,5a3.016,3.016,0,0,0,.207-.93,2.939,2.939,0,0,0-5.22-1.861H56.115a2.818,2.818,0,0,0-4.445,0H31.2A2.939,2.939,0,0,0,25.98,4.07a2.718,2.718,0,0,0,.207.93l-10.8,18.763A2.889,2.889,0,0,0,13.628,26.4c0,.1.052.207.052.31L3.394,44.491a2.94,2.94,0,0,0-2.43,2.894A2.984,2.984,0,0,0,3.29,50.28l10.648,18.4a2.7,2.7,0,0,0-.155.93,2.885,2.885,0,0,0,2.326,2.843l9.976,17.315a3.34,3.34,0,0,0-.207,1.034,2.945,2.945,0,0,0,2.946,2.946,2.854,2.854,0,0,0,2.223-1.034H51.67a2.906,2.906,0,0,0,4.445,0H76.79a2.887,2.887,0,0,0,2.119.93A2.945,2.945,0,0,0,81.855,90.7a2.141,2.141,0,0,0-.155-.827l9.976-17.419A2.885,2.885,0,0,0,94,69.611a2.925,2.925,0,0,0-.155-.93l10.6-18.4a2.944,2.944,0,0,0,2.378-2.894,2.892,2.892,0,0,0-2.275-2.843Zm-76.6,40.471L19.52,70.386h8.425Zm0-16.178H19.52a3.176,3.176,0,0,0-.258-.62l8.683-9.149Zm0-12.043L18.228,67.078a4.83,4.83,0,0,0-.775-.31L6.7,48.161a2.012,2.012,0,0,0,.1-.775,2.73,2.73,0,0,0-.052-.672L16.781,29.346a3.257,3.257,0,0,0,1.5-.517l9.665,10.027Zm0-19.745L19.107,27.9a2.826,2.826,0,0,0,.414-1.5c0-.052-.052-.155-.052-.207l8.477-3.05v13.9Zm0-15.558-8.425,3.05L27.945,9.964Zm63.007,7.547.155.258L84.284,61.548l-12.3-12.973L90.9,28.985l.052.052ZM54.616,66.561l2.223,2.274H52.445Zm-.052-2.171L38.489,47.9,53.84,31.621l8.141,8.586,7.882,8.314ZM55.6,65.527,70.9,49.659,83.922,63.408l-1.137,5.427H58.854ZM77.513,6.6a2.592,2.592,0,0,0,.672.259L89.35,26.3v.1a2.824,2.824,0,0,0,.414,1.5L70.949,47.437l-16.023-16.9Zm-1.757-.41L53.84,29.4,42.831,17.768,74.929,6.19Zm-23.828,0a2.746,2.746,0,0,0,3.928,0H70.329L41.694,16.528,31.873,6.19H51.928ZM29.5,7.276l.207-.413q.262-.067.517-.155L40.092,17.1,29.5,20.921Zm0,15.3,11.733-4.238,11.526,12.2L37.4,46.765,29.5,38.65V22.575Zm0,17.884,7.029,7.288L29.5,55.138V40.459Zm0,16.954,8.115-8.58,15.967,16.59-3.308,3.411H29.5V57.413Zm1.34,31.269a2.776,2.776,0,0,0-1.137-.672l-.2-.311V70.386H48.775L31.1,88.683Zm25.068,0a2.871,2.871,0,0,0-4.032,0H33.269l17.677-18.3h7.391l17.677,18.3H55.908Zm23.156-2.274-.827,1.447a2.6,2.6,0,0,0-.672.258L60.353,70.386H82.424Zm2.481-4.29,2.481-11.733h4.238L81.545,82.119Zm6.719-13.284H84.336l.879-4.083,3.308,3.515a1.912,1.912,0,0,0-.258.568Zm12.767-20.727-10.7,18.659a5.214,5.214,0,0,0-.775.362l-3.98-4.238,6.668-31.632,8.838,15.3a3.926,3.926,0,0,0-.155.827,3.488,3.488,0,0,0,.1.724Z" transform="translate(-2383.689 1835.875)" fill="#6d33f6"/>
    <circle id="Ellipse_10" data-name="Ellipse 10" cx="3.5" cy="3.5" r="3.5" transform="translate(-2358 1836)" fill="#2ff0ac"/>
    <circle id="Ellipse_11" data-name="Ellipse 11" cx="3.5" cy="3.5" r="3.5" transform="translate(-2333 1836)" fill="#2ff0ac"/>
    <circle id="Ellipse_12" data-name="Ellipse 12" cx="3.5" cy="3.5" r="3.5" transform="translate(-2308 1836)" fill="#2ff0ac"/>
    <circle id="Ellipse_13" data-name="Ellipse 13" cx="3.5" cy="3.5" r="3.5" transform="translate(-2308 1923)" fill="#2ff0ac"/>
    <circle id="Ellipse_14" data-name="Ellipse 14" cx="3.5" cy="3.5" r="3.5" transform="translate(-2333 1923)" fill="#2ff0ac"/>
    <circle id="Ellipse_15" data-name="Ellipse 15" cx="3.5" cy="3.5" r="3.5" transform="translate(-2358 1923)" fill="#2ff0ac"/>
  </g>
</svg>
