<svg xmlns="http://www.w3.org/2000/svg" width="200" height="200" viewBox="0 0 200 200">
  <g id="_14" data-name="14" transform="translate(2124 -1783)">
    <circle id="Ellipse_28" data-name="Ellipse 28" cx="100" cy="100" r="100" transform="translate(-2124 1783)" fill="#16161d"/>
    <g id="Group_18" data-name="Group 18" transform="translate(-15.718 -13.293)">
      <g id="organization" transform="translate(-2071.638 1832.938)">
        <g id="Group_11" data-name="Group 11" transform="translate(0 0)">
          <g id="Group_10" data-name="Group 10">
            <g id="Group_78" data-name="Group 78">
              <g id="building" transform="translate(0 -0.001)">
                <g id="Group_77" data-name="Group 77">
                  <g id="Group_76" data-name="Group 76">
                    <path id="Path_121" data-name="Path 121" d="M124.6,116.153H111.929V38.014a2.112,2.112,0,0,0-2.112-2.112h-35.9V8.448A2.112,2.112,0,0,0,71.8,6.336H16.9a2.112,2.112,0,0,0-2.112,2.112V116.153H2.112a2.112,2.112,0,0,0,0,4.224H124.6a2.112,2.112,0,0,0,0-4.224Zm-54.909,0H19.007V10.559H69.692Zm38.014,0H73.916V40.126h33.79Z" fill="#6d33f6"/>
                    <path id="Path_122" data-name="Path 122" d="M84.475,61.244H97.146a2.112,2.112,0,0,0,2.112-2.112V46.461a2.112,2.112,0,0,0-2.112-2.112H84.475a2.112,2.112,0,0,0-2.112,2.112V59.133A2.112,2.112,0,0,0,84.475,61.244Zm2.112-12.671h8.448v8.448H86.587Z" fill="#6d33f6"/>
                    <path id="Path_123" data-name="Path 123" d="M84.475,82.363H97.146a2.112,2.112,0,0,0,2.112-2.112V67.58a2.112,2.112,0,0,0-2.112-2.112H84.475a2.112,2.112,0,0,0-2.112,2.112V80.251A2.112,2.112,0,0,0,84.475,82.363Zm2.112-12.671h8.448v8.448H86.587Z" fill="#6d33f6"/>
                    <path id="Path_124" data-name="Path 124" d="M84.475,103.482H97.146a2.112,2.112,0,0,0,2.112-2.112V88.7a2.112,2.112,0,0,0-2.112-2.112H84.475A2.112,2.112,0,0,0,82.363,88.7V101.37A2.112,2.112,0,0,0,84.475,103.482Zm2.112-12.671h8.448v8.448H86.587Z" fill="#6d33f6"/>
                    <path id="Path_125" data-name="Path 125" d="M48.573,61.244H61.244a2.112,2.112,0,0,0,2.112-2.112V46.461a2.112,2.112,0,0,0-2.112-2.112H48.573a2.112,2.112,0,0,0-2.112,2.112V59.133A2.112,2.112,0,0,0,48.573,61.244Zm2.112-12.671h8.448v8.448H50.685Z" fill="#2ff0ac"/>
                    <path id="Path_126" data-name="Path 126" d="M48.573,40.126H61.244a2.112,2.112,0,0,0,2.112-2.112V25.343a2.112,2.112,0,0,0-2.112-2.112H48.573a2.112,2.112,0,0,0-2.112,2.112V38.014A2.112,2.112,0,0,0,48.573,40.126Zm2.112-12.671h8.448V35.9H50.685Z" fill="#2ff0ac"/>
                    <path id="Path_127" data-name="Path 127" d="M48.573,82.363H61.244a2.112,2.112,0,0,0,2.112-2.112V67.58a2.112,2.112,0,0,0-2.112-2.112H48.573a2.112,2.112,0,0,0-2.112,2.112V80.251A2.112,2.112,0,0,0,48.573,82.363Zm2.112-12.671h8.448v8.448H50.685Z" fill="#2ff0ac"/>
                    <path id="Path_128" data-name="Path 128" d="M48.573,103.482H61.244a2.112,2.112,0,0,0,2.112-2.112V88.7a2.112,2.112,0,0,0-2.112-2.112H48.573A2.112,2.112,0,0,0,46.461,88.7V101.37A2.112,2.112,0,0,0,48.573,103.482Zm2.112-12.671h8.448v8.448H50.685Z" fill="#2ff0ac"/>
                    <path id="Path_129" data-name="Path 129" d="M27.454,61.244H40.126a2.112,2.112,0,0,0,2.112-2.112V46.461a2.112,2.112,0,0,0-2.112-2.112H27.454a2.112,2.112,0,0,0-2.112,2.112V59.133A2.112,2.112,0,0,0,27.454,61.244Zm2.112-12.671h8.448v8.448H29.566Z" fill="#2ff0ac"/>
                    <path id="Path_130" data-name="Path 130" d="M27.454,40.126H40.126a2.112,2.112,0,0,0,2.112-2.112V25.343a2.112,2.112,0,0,0-2.112-2.112H27.454a2.112,2.112,0,0,0-2.112,2.112V38.014A2.112,2.112,0,0,0,27.454,40.126Zm2.112-12.671h8.448V35.9H29.566Z" fill="#2ff0ac"/>
                    <path id="Path_131" data-name="Path 131" d="M27.454,82.363H40.126a2.112,2.112,0,0,0,2.112-2.112V67.58a2.112,2.112,0,0,0-2.112-2.112H27.454a2.112,2.112,0,0,0-2.112,2.112V80.251A2.112,2.112,0,0,0,27.454,82.363Zm2.112-12.671h8.448v8.448H29.566Z" fill="#2ff0ac"/>
                    <path id="Path_132" data-name="Path 132" d="M27.454,103.482H40.126a2.112,2.112,0,0,0,2.112-2.112V88.7a2.112,2.112,0,0,0-2.112-2.112H27.454A2.112,2.112,0,0,0,25.343,88.7V101.37A2.112,2.112,0,0,0,27.454,103.482Zm2.112-12.671h8.448v8.448H29.566Z" fill="#2ff0ac"/>
                  </g>
                </g>
              </g>
            </g>
          </g>
        </g>
      </g>
    </g>
  </g>
</svg>
