<svg xmlns="http://www.w3.org/2000/svg" width="200" height="200" viewBox="0 0 200 200">
  <g id="_15" data-name="15" transform="translate(6343 -8881)">
    <g id="_6" data-name="6" transform="translate(-4525 6647)">
      <circle id="Ellipse_28" data-name="Ellipse 28" cx="100" cy="100" r="100" transform="translate(-1818 2234)" fill="#16161d"/>
      <g id="Group_19" data-name="Group 19" transform="translate(-74.134 -69.956)">
        <g id="microchip" transform="translate(-1688.742 2345.856)">
          <g id="Group_79" data-name="Group 79" transform="translate(0 0)">
            <g id="quality-assurance">
              <path id="Path_133" data-name="Path 133" d="M95.588,100.023l5.884,17.656L107.82,107.1l8.588,2.146-5.887-21.591A69.411,69.411,0,0,1,95.588,100.023Z" transform="translate(-33.43 -1.482)" fill="#6d33f6"/>
              <path id="Path_134" data-name="Path 134" d="M64.579,87.659,58.692,109.25,67.28,107.1l6.347,10.577,5.884-17.656A69.713,69.713,0,0,1,64.579,87.659Z" transform="translate(-51.922 -1.481)" fill="#6d33f6"/>
              <path id="Path_136" data-name="Path 136" d="M136,40.933a68.969,68.969,0,0,1-36.944-10.68,69.033,69.033,0,0,1-36.938,10.68H54.182V69.765a63.982,63.982,0,0,0,44.876,60.8,63.982,63.982,0,0,0,44.876-60.8V40.933Zm2.325,28.833a58.21,58.21,0,0,1-38.31,54.56l-.956.345-.956-.345a58.21,58.21,0,0,1-38.31-54.56V46.556l2.788-.017a74.96,74.96,0,0,0,35.143-9.006l1.338-.726,1.338.726a74.981,74.981,0,0,0,35.138,9.006l2.788.017Z" transform="translate(-54.182 -30.252)" fill="#6d33f6"/>
              <path id="Path_137" data-name="Path 137" d="M78.087,69.916l-4.448,4.448L83.7,84.422l26.886-26.886-4.448-4.448L83.7,75.525Z" transform="translate(-44.431 -18.808)" fill="#2ff0ac"/>
              <path id="Path_139" data-name="Path 139" d="M61.656,47.77V65.454a52.584,52.584,0,0,0,33.657,48.929,52.589,52.589,0,0,0,33.657-48.929V47.77A80.645,80.645,0,0,1,95.315,38.86a80.636,80.636,0,0,1-33.66,8.911Zm26.931.213,1.966,5.253c-1.871.7-3.772,1.343-5.649,1.91l-1.621-5.368C85.044,49.246,86.828,48.643,88.587,47.984ZM67.265,65.451V53.027l2.44-.32c2.7-.356,5.441-.853,8.145-1.478L79.115,56.7c-2.07.477-4.159.883-6.243,1.22v7.539q0,.984.05,1.961l-5.6.286q-.055-1.123-.053-2.249Zm57.256-.785L89.7,99.484l-17.99-17.99,12.38-12.38L89.7,74.724l22.438-22.438Z" transform="translate(-50.437 -25.938)" fill="#6d33f6"/>
            </g>
          </g>
        </g>
      </g>
    </g>
  </g>
</svg>
