<svg xmlns="http://www.w3.org/2000/svg" width="200" height="200" viewBox="0 0 200 200">
  <g id="_2" data-name="2" transform="translate(2124 -1783)">
    <circle id="Ellipse_28" data-name="Ellipse 28" cx="100" cy="100" r="100" transform="translate(-2124 1783)" fill="#16161d"/>
    <g id="keyboard" transform="translate(-2080.609 1815.003)">
      <g id="Group_21" data-name="Group 21" transform="translate(0 0.499)">
        <g id="Group_20" data-name="Group 20">
          <path id="Path_90" data-name="Path 90" d="M107.063,55.37H89.747a1.659,1.659,0,1,0,0,3.319h17.316a2.838,2.838,0,0,1,2.835,2.835v45.818a2.838,2.838,0,0,1-2.835,2.835H6.153a2.838,2.838,0,0,1-2.835-2.835V61.523a2.838,2.838,0,0,1,2.835-2.835H80.9a1.659,1.659,0,1,0,0-3.319H63.927V51.408a3.492,3.492,0,0,0-3.488-3.488H58.064v-2.8A4.723,4.723,0,0,1,62.782,40.4h2.954a8.045,8.045,0,0,0,8.036-8.036v-4.5a8.045,8.045,0,0,0-8.036-8.036H62.985a4.723,4.723,0,0,1-4.717-4.717V2.158a1.659,1.659,0,0,0-3.319,0V15.106a8.045,8.045,0,0,0,8.036,8.036h2.751a4.723,4.723,0,0,1,4.717,4.717v4.5a4.723,4.723,0,0,1-4.717,4.717H62.782a8.045,8.045,0,0,0-8.036,8.036v2.8H52.7a3.492,3.492,0,0,0-3.488,3.488v3.961H6.153A6.161,6.161,0,0,0,0,61.523v45.818A6.16,6.16,0,0,0,6.153,113.5h100.91a6.16,6.16,0,0,0,6.153-6.153V61.523A6.161,6.161,0,0,0,107.063,55.37ZM52.7,51.239h7.735a.17.17,0,0,1,.17.17V55.37H52.534V51.409h0A.17.17,0,0,1,52.7,51.239Z" transform="translate(0 -0.499)" fill="#2ff0ac"/>
        </g>
      </g>
      <g id="Group_23" data-name="Group 23" transform="translate(7.189 63.185)">
        <g id="Group_22" data-name="Group 22">
          <path id="Path_91" data-name="Path 91" d="M42.521,283.982H35.195a2.688,2.688,0,0,0-2.685,2.685v6.742a2.688,2.688,0,0,0,2.685,2.685h7.326a2.688,2.688,0,0,0,2.685-2.685v-6.742A2.688,2.688,0,0,0,42.521,283.982Zm-.634,8.793H35.829V287.3h6.058Z" transform="translate(-32.51 -283.982)" fill="#6d33f6"/>
        </g>
      </g>
      <g id="Group_25" data-name="Group 25" transform="translate(21.546 63.185)">
        <g id="Group_24" data-name="Group 24">
          <path id="Path_92" data-name="Path 92" d="M107.449,283.983h-7.326a2.688,2.688,0,0,0-2.685,2.685v6.742a2.688,2.688,0,0,0,2.685,2.685h7.326a2.688,2.688,0,0,0,2.685-2.685v-6.742A2.688,2.688,0,0,0,107.449,283.983Zm-.634,8.792h-6.058V287.3h6.058Z" transform="translate(-97.438 -283.983)" fill="#6d33f6"/>
        </g>
      </g>
      <g id="Group_27" data-name="Group 27" transform="translate(35.903 63.185)">
        <g id="Group_26" data-name="Group 26">
          <path id="Path_93" data-name="Path 93" d="M172.377,283.983h-7.326a2.688,2.688,0,0,0-2.685,2.685v6.742a2.688,2.688,0,0,0,2.685,2.685h7.326a2.688,2.688,0,0,0,2.685-2.685v-6.742A2.688,2.688,0,0,0,172.377,283.983Zm-.634,8.792h-6.058V287.3h6.058Z" transform="translate(-162.366 -283.983)" fill="#6d33f6"/>
        </g>
      </g>
      <g id="Group_29" data-name="Group 29" transform="translate(50.261 63.185)">
        <g id="Group_28" data-name="Group 28">
          <path id="Path_94" data-name="Path 94" d="M237.3,283.983h-7.326a2.688,2.688,0,0,0-2.685,2.685v6.742a2.688,2.688,0,0,0,2.685,2.685H237.3a2.688,2.688,0,0,0,2.685-2.685v-6.742A2.688,2.688,0,0,0,237.3,283.983Zm-.634,8.792h-6.058V287.3h6.058Z" transform="translate(-227.294 -283.983)" fill="#6d33f6"/>
        </g>
      </g>
      <g id="Group_31" data-name="Group 31" transform="translate(64.618 63.185)">
        <g id="Group_30" data-name="Group 30">
          <path id="Path_95" data-name="Path 95" d="M302.233,283.983h-7.326a2.688,2.688,0,0,0-2.685,2.685v6.742a2.688,2.688,0,0,0,2.685,2.685h7.326a2.688,2.688,0,0,0,2.685-2.685v-6.742A2.688,2.688,0,0,0,302.233,283.983Zm-.634,8.792H295.54V287.3H301.6Z" transform="translate(-292.222 -283.983)" fill="#6d33f6"/>
        </g>
      </g>
      <g id="Group_33" data-name="Group 33" transform="translate(78.975 63.185)">
        <g id="Group_32" data-name="Group 32">
          <path id="Path_96" data-name="Path 96" d="M367.16,283.983h-7.326a2.688,2.688,0,0,0-2.685,2.685v6.742a2.688,2.688,0,0,0,2.685,2.685h7.326a2.688,2.688,0,0,0,2.685-2.685v-6.742A2.688,2.688,0,0,0,367.16,283.983Zm-.634,8.792h-6.058V287.3h6.058Z" transform="translate(-357.149 -283.983)" fill="#6d33f6"/>
        </g>
      </g>
      <g id="Group_35" data-name="Group 35" transform="translate(93.332 63.185)">
        <g id="Group_34" data-name="Group 34">
          <path id="Path_97" data-name="Path 97" d="M432.089,283.982h-7.326a2.688,2.688,0,0,0-2.685,2.685v6.742a2.688,2.688,0,0,0,2.685,2.685h7.326a2.688,2.688,0,0,0,2.685-2.685v-6.742A2.688,2.688,0,0,0,432.089,283.982Zm-.634,8.793H425.4V287.3h6.058Z" transform="translate(-422.078 -283.982)" fill="#6d33f6"/>
        </g>
      </g>
      <g id="Group_37" data-name="Group 37" transform="translate(7.189 79.115)">
        <g id="Group_36" data-name="Group 36">
          <path id="Path_98" data-name="Path 98" d="M48.8,356.023h-13.6a2.688,2.688,0,0,0-2.685,2.685v6.742a2.688,2.688,0,0,0,2.685,2.685H48.8a2.688,2.688,0,0,0,2.685-2.685v-6.742A2.688,2.688,0,0,0,48.8,356.023Zm-.634,8.792H35.829v-5.474H48.162Z" transform="translate(-32.51 -356.023)" fill="#6d33f6"/>
        </g>
      </g>
      <g id="Group_39" data-name="Group 39" transform="translate(87.057 79.114)">
        <g id="Group_38" data-name="Group 38">
          <path id="Path_99" data-name="Path 99" d="M409.985,356.022h-13.6a2.688,2.688,0,0,0-2.685,2.685v6.742a2.688,2.688,0,0,0,2.685,2.685h13.6a2.688,2.688,0,0,0,2.685-2.685v-6.742A2.688,2.688,0,0,0,409.985,356.022Zm-.634,8.793H397.018v-5.474h12.333Z" transform="translate(-393.699 -356.022)" fill="#6d33f6"/>
        </g>
      </g>
      <g id="Group_41" data-name="Group 41" transform="translate(28.096 79.114)">
        <g id="Group_40" data-name="Group 40">
          <path id="Path_100" data-name="Path 100" d="M137.068,356.022h-7.326a2.688,2.688,0,0,0-2.685,2.685v6.742a2.688,2.688,0,0,0,2.685,2.685h7.326a2.688,2.688,0,0,0,2.685-2.685v-6.742A2.688,2.688,0,0,0,137.068,356.022Zm-.634,8.793h-6.058v-5.474h6.058Z" transform="translate(-127.057 -356.022)" fill="#6d33f6"/>
        </g>
      </g>
      <g id="Group_43" data-name="Group 43" transform="translate(42.872 79.114)">
        <g id="Group_42" data-name="Group 42">
          <path id="Path_101" data-name="Path 101" d="M203.893,356.022h-7.326a2.688,2.688,0,0,0-2.685,2.685v6.742a2.688,2.688,0,0,0,2.685,2.685h7.326a2.688,2.688,0,0,0,2.685-2.685v-6.742A2.688,2.688,0,0,0,203.893,356.022Zm-.634,8.793H197.2v-5.474h6.058Z" transform="translate(-193.882 -356.022)" fill="#6d33f6"/>
        </g>
      </g>
      <g id="Group_45" data-name="Group 45" transform="translate(57.649 79.114)">
        <g id="Group_44" data-name="Group 44">
          <path id="Path_102" data-name="Path 102" d="M270.717,356.022h-7.326a2.688,2.688,0,0,0-2.685,2.685v6.742a2.688,2.688,0,0,0,2.685,2.685h7.326a2.688,2.688,0,0,0,2.685-2.685v-6.742A2.688,2.688,0,0,0,270.717,356.022Zm-.634,8.793h-6.058v-5.474h6.058Z" transform="translate(-260.706 -356.022)" fill="#6d33f6"/>
        </g>
      </g>
      <g id="Group_47" data-name="Group 47" transform="translate(72.426 79.114)">
        <g id="Group_46" data-name="Group 46">
          <path id="Path_103" data-name="Path 103" d="M337.542,356.022h-7.326a2.688,2.688,0,0,0-2.685,2.685v6.742a2.688,2.688,0,0,0,2.685,2.685h7.326a2.688,2.688,0,0,0,2.685-2.685v-6.742A2.688,2.688,0,0,0,337.542,356.022Zm-.634,8.793h-6.058v-5.474h6.058Z" transform="translate(-327.531 -356.022)" fill="#6d33f6"/>
        </g>
      </g>
      <g id="Group_49" data-name="Group 49" transform="translate(22.841 95.044)">
        <g id="Group_48" data-name="Group 48">
          <path id="Path_104" data-name="Path 104" d="M168.144,428.062H119.321a1.659,1.659,0,1,0,0,3.319H167.51v5.474h-60.9v-5.474H110.5a1.659,1.659,0,0,0,0-3.319h-4.52a2.688,2.688,0,0,0-2.685,2.685v6.742a2.687,2.687,0,0,0,2.684,2.685h62.166a2.688,2.688,0,0,0,2.685-2.685v-6.742A2.688,2.688,0,0,0,168.144,428.062Z" transform="translate(-103.294 -428.062)" fill="#6d33f6"/>
        </g>
      </g>
      <g id="Group_51" data-name="Group 51" transform="translate(7.189 95.045)">
        <g id="Group_50" data-name="Group 50">
          <path id="Path_105" data-name="Path 105" d="M42.521,428.063H35.195a2.688,2.688,0,0,0-2.685,2.685v6.742a2.688,2.688,0,0,0,2.685,2.685h7.326a2.688,2.688,0,0,0,2.685-2.685v-6.742A2.688,2.688,0,0,0,42.521,428.063Zm-.634,8.792H35.829v-5.474h6.058Z" transform="translate(-32.51 -428.063)" fill="#6d33f6"/>
        </g>
      </g>
      <g id="Group_53" data-name="Group 53" transform="translate(93.332 95.045)">
        <g id="Group_52" data-name="Group 52">
          <path id="Path_106" data-name="Path 106" d="M432.089,428.063h-7.326a2.688,2.688,0,0,0-2.685,2.685v6.742a2.688,2.688,0,0,0,2.685,2.685h7.326a2.688,2.688,0,0,0,2.685-2.685v-6.742A2.688,2.688,0,0,0,432.089,428.063Zm-.634,8.792H425.4v-5.474h6.058Z" transform="translate(-422.078 -428.063)" fill="#6d33f6"/>
        </g>
      </g>
    </g>
  </g>
</svg>
