<svg xmlns="http://www.w3.org/2000/svg" width="200" height="200" viewBox="0 0 200 200">
  <g id="_8" data-name="8" transform="translate(1818 -2234)">
    <circle id="Ellipse_28" data-name="Ellipse 28" cx="100" cy="100" r="100" transform="translate(-1818 2234)" fill="#16161d"/>
    <g id="Group_73" data-name="Group 73">
      <g id="fingerprint" transform="translate(-1762.981 2289.02)">
        <g id="Group_68" data-name="Group 68">
          <path id="Path_113" data-name="Path 113" d="M76.767,18.052a2.782,2.782,0,0,1-1.893-.735,44.048,44.048,0,0,0-59.787,0,2.813,2.813,0,1,1-3.79-4.157,49.674,49.674,0,0,1,67.366,0,2.81,2.81,0,0,1-1.9,4.888Z" fill="#6d33f6"/>
        </g>
        <g id="Group_69" data-name="Group 69">
          <path id="Path_114" data-name="Path 114" d="M81.528,36.423a2.8,2.8,0,0,1-2.335-1.244A41.316,41.316,0,0,0,44.981,16.62,41.316,41.316,0,0,0,10.769,35.179,2.812,2.812,0,1,1,6.1,32.045,46.935,46.935,0,0,1,44.981,11,46.929,46.929,0,0,1,83.863,32.049a2.806,2.806,0,0,1-2.335,4.374Z" fill="#6d33f6"/>
        </g>
        <g id="Group_70" data-name="Group 70">
          <path id="Path_115" data-name="Path 115" d="M36.1,89.962a2.807,2.807,0,0,1-2-.832c-.615-.618-15.02-15.324-15.02-29.481C19.083,44.955,30.7,33,44.981,33s25.9,11.954,25.9,26.647a2.811,2.811,0,1,1-5.623,0c0-11.594-9.094-21.025-20.275-21.025S24.706,48.055,24.706,59.648c0,11.871,13.258,25.388,13.393,25.523a2.811,2.811,0,0,1-2,4.79Z" fill="#2ff0ac"/>
        </g>
        <g id="Group_71" data-name="Group 71">
          <path id="Path_116" data-name="Path 116" d="M53.861,89.962C47.1,89.962,31.423,77.1,29.9,62.771a18.18,18.18,0,0,1,4.307-13.858A14.338,14.338,0,0,1,44.9,44.006h.079a14.967,14.967,0,0,1,10.608,4.408,15.717,15.717,0,0,1,4.637,11.238v1.833a7.851,7.851,0,1,0,15.687,0v-.641c0-17.505-12.681-32.068-28.87-33.147A30.1,30.1,0,0,0,24.256,35.88a32.839,32.839,0,0,0-3.111,44.175,2.813,2.813,0,0,1-4.4,3.509A38.465,38.465,0,0,1,20.41,31.772a35.666,35.666,0,0,1,27-9.69c19.132,1.278,34.122,18.3,34.122,38.759v.641a13.471,13.471,0,1,1-26.932,0V59.648A10.142,10.142,0,0,0,51.623,52.4a9.365,9.365,0,0,0-6.642-2.774h-.052a8.7,8.7,0,0,0-6.53,3.036,12.466,12.466,0,0,0-2.909,9.517c1.241,11.688,14.671,22.164,18.367,22.164a2.809,2.809,0,1,1,0,5.619Z" fill="#6d33f6"/>
        </g>
        <g id="Group_72" data-name="Group 72">
          <path id="Path_117" data-name="Path 117" d="M64.293,84.463c-10.061,0-22.344-12.295-22.344-26.647a2.811,2.811,0,1,1,5.623,0c0,11.125,9.352,21.025,16.722,21.025a2.811,2.811,0,0,1,0,5.623Z" fill="#2ff0ac"/>
        </g>
      </g>
    </g>
  </g>
</svg>
