<svg xmlns="http://www.w3.org/2000/svg" width="200" height="200" viewBox="0 0 200 200">
  <g id="_9" data-name="9" transform="translate(2124 -1783)">
    <circle id="Ellipse_28" data-name="Ellipse 28" cx="100" cy="100" r="100" transform="translate(-2124 1783)" fill="#16161d"/>
    <g id="Group_18" data-name="Group 18" transform="translate(-15.718 -13.293)">
      <g id="organization" transform="translate(-2071.638 1832.938)">
        <g id="Group_11" data-name="Group 11" transform="translate(0 0)">
          <g id="Group_10" data-name="Group 10">
            <path id="Path_84" data-name="Path 84" d="M118.831,55.475a7.893,7.893,0,0,0-7.687,6.151H89.888l-8.1-13.959L98.549,30.9a7.882,7.882,0,0,0,9.607-12.346h0a7.881,7.881,0,0,0-12.344,9.6L79.771,44.2l-2.628-4.527h-11.9V15.531a7.878,7.878,0,1,0-3.874-.024V39.675H49.57L46.941,44.2,30.9,28.163a7.882,7.882,0,0,0-12.346-9.607h0A7.883,7.883,0,0,0,28.163,30.9L44.929,47.668l-8.1,13.959H15.568a7.881,7.881,0,1,0-.105,3.874H36.974l7.9,13.6-16.71,16.71A7.862,7.862,0,1,0,30.9,98.548L46.883,82.567l2.686,4.627h11.8V111.2a7.883,7.883,0,1,0,3.874-.024V87.194h11.9l2.686-4.626L95.812,98.55a7.881,7.881,0,1,0,2.739-2.739L81.841,79.1l7.9-13.6H111.25a7.88,7.88,0,1,0,7.581-10.025ZM99.75,21.3a4.007,4.007,0,0,1,5.667,0h0a4.007,4.007,0,1,1-5.667,0ZM26.962,26.962A4.007,4.007,0,1,1,21.3,21.3h0a4.007,4.007,0,1,1,5.666,5.667ZM7.881,67.363a4.007,4.007,0,1,1,4.007-4.007A4.011,4.011,0,0,1,7.881,67.363Zm19.081,38.053a4.006,4.006,0,1,1,1.174-2.833A3.98,3.98,0,0,1,26.962,105.416ZM99.75,99.75a4.007,4.007,0,1,1,0,5.667A4.011,4.011,0,0,1,99.75,99.75ZM59.349,7.881a4.007,4.007,0,1,1,4.007,4.007A4.011,4.011,0,0,1,59.349,7.881Zm8.013,110.951a4.007,4.007,0,1,1-4.007-4.007A4.011,4.011,0,0,1,67.363,118.831ZM74.912,83.32H51.8L40.254,63.435,51.8,43.549H74.912L86.458,63.435Zm43.92-15.958a4.007,4.007,0,1,1,4.007-4.007A4.011,4.011,0,0,1,118.831,67.363Z" transform="translate(0 0)" fill="#6d33f6"/>
          </g>
        </g>
        <g id="Group_13" data-name="Group 13" transform="translate(61.37 61.628)">
          <g id="Group_12" data-name="Group 12">
            <rect id="Rectangle_13" data-name="Rectangle 13" width="4.132" height="3.874" fill="#2ff0ac"/>
          </g>
        </g>
        <g id="Group_15" data-name="Group 15" transform="translate(67.31 61.628)">
          <g id="Group_14" data-name="Group 14">
            <rect id="Rectangle_14" data-name="Rectangle 14" width="3.874" height="3.874" fill="#2ff0ac"/>
          </g>
        </g>
        <g id="Group_17" data-name="Group 17" transform="translate(55.43 61.628)">
          <g id="Group_16" data-name="Group 16">
            <rect id="Rectangle_15" data-name="Rectangle 15" width="4.132" height="3.874" fill="#2ff0ac"/>
          </g>
        </g>
      </g>
    </g>
  </g>
</svg>
